<svg xmlns="http://www.w3.org/2000/svg" version="1.1" xmlns:xlink="http://www.w3.org/1999/xlink" xmlns:svgjs="http://svgjs.com/svgjs" width="512" height="512" x="0" y="0" viewBox="0 0 682.66669 682.66669" style="enable-background:new 0 0 512 512" xml:space="preserve" class=""><g><defs id="defs787"><clipPath clipPathUnits="userSpaceOnUse" id="clipPath797"><path d="M 0,512 H 512 V 0 H 0 Z" id="path795" fill="#000000" data-original="#000000"></path></clipPath><clipPath clipPathUnits="userSpaceOnUse" id="clipPath817"><path d="M 0,512 H 512 V 0 H 0 Z" id="path815" fill="#000000" data-original="#000000"></path></clipPath><clipPath clipPathUnits="userSpaceOnUse" id="clipPath837"><path d="M 0,512 H 512 V 0 H 0 Z" id="path835" fill="#000000" data-original="#000000"></path></clipPath></defs><g id="g789" transform="matrix(1.3333333,0,0,-1.3333333,0,682.66667)"><g id="g791"><g id="g793" clip-path="url(#clipPath797)"><g id="g799" transform="translate(314.9102,392.6899)"><path d="M 0,0 -244.38,59.74 -286.8,17.31 -93.521,-94.3" style="stroke-width:20;stroke-linecap:round;stroke-linejoin:round;stroke-miterlimit:10;stroke-dasharray:none;stroke-opacity:1" id="path801" fill="none" stroke="#000000" stroke-width="20" stroke-linecap="round" stroke-linejoin="round" stroke-miterlimit="10" stroke-dasharray="none" stroke-opacity="" data-original="#000000" class=""></path></g><g id="g803" transform="translate(392.6602,314.8701)"><path d="M 0,0 59.71,-244.28 17.28,-286.71 -94.33,-93.42" style="stroke-width:20;stroke-linecap:round;stroke-linejoin:round;stroke-miterlimit:10;stroke-dasharray:none;stroke-opacity:1" id="path805" fill="none" stroke="#000000" stroke-width="20" stroke-linecap="round" stroke-linejoin="round" stroke-miterlimit="10" stroke-dasharray="none" stroke-opacity="" data-original="#000000" class=""></path></g></g></g><g id="g807" transform="translate(77.6201,76.73)"><path d="M 0,0 84.85,84.86" style="stroke-width:20;stroke-linecap:round;stroke-linejoin:round;stroke-miterlimit:10;stroke-dasharray:none;stroke-opacity:1" id="path809" fill="none" stroke="#000000" stroke-width="20" stroke-linecap="round" stroke-linejoin="round" stroke-miterlimit="10" stroke-dasharray="none" stroke-opacity="" data-original="#000000" class=""></path></g><g id="g811"><g id="g813" clip-path="url(#clipPath817)"><g id="g819" transform="translate(139.4297,435.5898)"><path d="M 0,0 37.61,37.61" style="stroke-width:20;stroke-linecap:round;stroke-linejoin:round;stroke-miterlimit:10;stroke-dasharray:none;stroke-opacity:1" id="path821" fill="none" stroke="#000000" stroke-width="20" stroke-linecap="round" stroke-linejoin="round" stroke-miterlimit="10" stroke-dasharray="none" stroke-opacity="" data-original="#000000" class=""></path></g></g></g><g id="g823" transform="translate(207.6104,418.9199)"><path d="M 0,0 33.069,33.07" style="stroke-width:20;stroke-linecap:round;stroke-linejoin:round;stroke-miterlimit:10;stroke-dasharray:none;stroke-opacity:1" id="path825" fill="none" stroke="#000000" stroke-width="20" stroke-linecap="round" stroke-linejoin="round" stroke-miterlimit="10" stroke-dasharray="none" stroke-opacity="" data-original="#000000" class=""></path></g><g id="g827" transform="translate(419.21,206.25)"><path d="M 0,0 33.6,33.61" style="stroke-width:20;stroke-linecap:round;stroke-linejoin:round;stroke-miterlimit:10;stroke-dasharray:none;stroke-opacity:1" id="path829" fill="none" stroke="#000000" stroke-width="20" stroke-linecap="round" stroke-linejoin="round" stroke-miterlimit="10" stroke-dasharray="none" stroke-opacity="" data-original="#000000" class=""></path></g><g id="g831"><g id="g833" clip-path="url(#clipPath837)"><g id="g839" transform="translate(435.8799,138.0698)"><path d="M 0,0 38.15,38.15" style="stroke-width:20;stroke-linecap:round;stroke-linejoin:round;stroke-miterlimit:10;stroke-dasharray:none;stroke-opacity:1" id="path841" fill="none" stroke="#000000" stroke-width="20" stroke-linecap="round" stroke-linejoin="round" stroke-miterlimit="10" stroke-dasharray="none" stroke-opacity="" data-original="#000000" class=""></path></g><g id="g843" transform="translate(464.0713,381.7183)"><path d="m 0,0 c -3.905,-3.905 -10.237,-3.905 -14.143,0 -3.905,3.905 -3.905,10.237 0,14.142 3.906,3.905 10.238,3.905 14.143,0 C 3.905,10.237 3.905,3.905 0,0" style="fill-opacity:1;fill-rule:nonzero;stroke:none" id="path845" fill="#000000" data-original="#000000"></path></g><g id="g847" transform="translate(428.0898,354.2988)"><path d="m 0,0 c -11.161,-12.886 -23.131,-26.062 -35.57,-39.299 -30.15,-32.09 -63.06,-64.54 -93.9,-94.05 -48.84,-46.71 -92.46,-86.04 -111.62,-104.87 v -63.65 l -42.65,-42.43 -24.75,109.6 -109.6,24.75 42.43,42.65 h 63.65 c 18.37,18.69 57.83,62.48 104.88,111.64 29.5,30.8 61.97,63.71 94.1,93.89 77.36,72.62 152.74,129.33 179.74,102.33 13.253,-13.258 6.494,-38.031 -12.37,-68.929" style="stroke-width:20;stroke-linecap:round;stroke-linejoin:round;stroke-miterlimit:10;stroke-dasharray:none;stroke-opacity:1" id="path849" fill="none" stroke="#000000" stroke-width="20" stroke-linecap="round" stroke-linejoin="round" stroke-miterlimit="10" stroke-dasharray="none" stroke-opacity="" data-original="#000000" class=""></path></g></g></g></g></g></svg>