<svg xmlns="http://www.w3.org/2000/svg" version="1.1" xmlns:xlink="http://www.w3.org/1999/xlink" xmlns:svgjs="http://svgjs.com/svgjs" width="512" height="512" x="0" y="0" viewBox="0 0 682.66669 682.66669" style="enable-background:new 0 0 512 512" xml:space="preserve" class=""><g>
  <defs id="defs3343">
    <clipPath clipPathUnits="userSpaceOnUse" id="clipPath3353">
      <path d="M 0,512 H 512 V 0 H 0 Z" id="path3351" fill="#000000" data-original="#000000"></path>
    </clipPath>
  </defs>
  <mask id="custom"><rect id="bg" x="0" y="0" width="100%" height="100%" fill="white" data-original="#ffffff"></rect><g transform="matrix(1.3333333,0,0,-1.3333333,0,682.66667)"><path transform="matrix(1,0,0,1,118.69,407.22)" d="m 0,0 c -1.61,1.12 -3.58,1.78 -5.69,1.78 -5.52,0 -10,-4.48 -10,-10 0,-2.11 0.66,-4.08 1.78,-5.69 1.8,-2.6 4.81,-4.31 8.22,-4.31 5.52,0 10,4.48 10,10 C 4.31,-4.81 2.6,-1.8 0,0" style="fill-opacity:1;fill-rule:nonzero;stroke:none" id="path3357" fill="#ffffff" data-original="#ffffff"></path></g></mask><g mask="url(#custom)"><g id="g3345" transform="matrix(1.3333333,0,0,-1.3333333,0,682.66667)">
    <g id="g3347">
      <g id="g3349" clip-path="url(#clipPath3353)">
        <g id="g3355" transform="translate(118.69,407.22)">
          <path d="m 0,0 c -1.61,1.12 -3.58,1.78 -5.69,1.78 -5.52,0 -10,-4.48 -10,-10 0,-2.11 0.66,-4.08 1.78,-5.69 1.8,-2.6 4.81,-4.31 8.22,-4.31 5.52,0 10,4.48 10,10 C 4.31,-4.81 2.6,-1.8 0,0" style="fill-opacity:1;fill-rule:nonzero;stroke:none" id="path3357" fill="#000000" data-original="#000000"></path>
        </g>
        <g id="g3359" transform="translate(86.24,369.3)">
          <path d="m 0,0 c -21,-31.64 -33.24,-72.57 -33.24,-113.3 0,-110.27 92.72,-203 203,-203 110.28,0 203,92.73 203,203 0,110.27 -92.72,203 -203,203 -40.73,0 -81.66,-12.24 -113.3,-33.24 l -0.23,0.34" style="stroke-width:1;stroke-linecap:butt;stroke-linejoin:miter;stroke-miterlimit:10;stroke-dasharray:none;stroke-opacity:1" id="path3361" fill="none" stroke="#000000" stroke-width="1" stroke-linecap="butt" stroke-linejoin="miter" stroke-miterlimit="10" stroke-dasharray="none" stroke-opacity="" data-original="#000000" class=""></path>
        </g>
        <g id="g3363" transform="translate(502,256)">
          <path d="m 0,0 c 0,-132.55 -113.45,-246 -246,-246 -132.55,0 -246,113.45 -246,246 0,132.55 113.45,246 246,246 C -113.45,246 0,132.55 0,0 Z" style="stroke-width:20;stroke-linecap:round;stroke-linejoin:round;stroke-miterlimit:4;stroke-dasharray:none;stroke-opacity:1" id="path3365" fill="none" stroke="#000000" stroke-width="20" stroke-linecap="round" stroke-linejoin="round" stroke-miterlimit="4" stroke-dasharray="none" stroke-opacity="" data-original="#000000" class=""></path>
        </g>
        <g id="g3367" transform="translate(142.7,425.76)">
          <path d="m 0,0 c 31.64,21 72.57,33.24 113.3,33.24 110.28,0 203,-92.73 203,-203 0,-110.27 -92.72,-203 -203,-203 -110.28,0 -203,92.73 -203,203 0,40.73 12.24,81.66 33.24,113.3" style="stroke-width:20;stroke-linecap:round;stroke-linejoin:round;stroke-miterlimit:4;stroke-dasharray:none;stroke-opacity:1" id="path3369" fill="none" stroke="#000000" stroke-width="20" stroke-linecap="round" stroke-linejoin="round" stroke-miterlimit="4" stroke-dasharray="none" stroke-opacity="" data-original="#000000" class=""></path>
        </g>
        <g id="g3371" transform="translate(276,256)">
          <path d="m 0,0 c 0,-11.05 -8.95,-20 -20,-20 -11.05,0 -20,8.95 -20,20 0,11.05 8.95,20 20,20 C -8.95,20 0,11.05 0,0 Z" style="stroke-width:20;stroke-linecap:round;stroke-linejoin:round;stroke-miterlimit:4;stroke-dasharray:none;stroke-opacity:1" id="path3373" fill="none" stroke="#000000" stroke-width="20" stroke-linecap="round" stroke-linejoin="round" stroke-miterlimit="4" stroke-dasharray="none" stroke-opacity="" data-original="#000000" class=""></path>
        </g>
        <g id="g3375" transform="translate(256,356)">
          <path d="M 0,0 V -80" style="stroke-width:20;stroke-linecap:round;stroke-linejoin:round;stroke-miterlimit:4;stroke-dasharray:none;stroke-opacity:1" id="path3377" fill="none" stroke="#000000" stroke-width="20" stroke-linecap="round" stroke-linejoin="round" stroke-miterlimit="4" stroke-dasharray="none" stroke-opacity="" data-original="#000000" class=""></path>
        </g>
        <g id="g3379" transform="translate(276,256)">
          <path d="M 0,0 H 60" style="stroke-width:20;stroke-linecap:round;stroke-linejoin:round;stroke-miterlimit:4;stroke-dasharray:none;stroke-opacity:1" id="path3381" fill="none" stroke="#000000" stroke-width="20" stroke-linecap="round" stroke-linejoin="round" stroke-miterlimit="4" stroke-dasharray="none" stroke-opacity="" data-original="#000000" class=""></path>
        </g>
        <g id="g3383" transform="translate(256,416)">
          <path d="M 0,0 V -20" style="stroke-width:20;stroke-linecap:round;stroke-linejoin:round;stroke-miterlimit:4;stroke-dasharray:none;stroke-opacity:1" id="path3385" fill="none" stroke="#000000" stroke-width="20" stroke-linecap="round" stroke-linejoin="round" stroke-miterlimit="4" stroke-dasharray="none" stroke-opacity="" data-original="#000000" class=""></path>
        </g>
        <g id="g3387" transform="translate(256,116)">
          <path d="M 0,0 V -20" style="stroke-width:20;stroke-linecap:round;stroke-linejoin:round;stroke-miterlimit:4;stroke-dasharray:none;stroke-opacity:1" id="path3389" fill="none" stroke="#000000" stroke-width="20" stroke-linecap="round" stroke-linejoin="round" stroke-miterlimit="4" stroke-dasharray="none" stroke-opacity="" data-original="#000000" class=""></path>
        </g>
        <g id="g3391" transform="translate(96,256)">
          <path d="M 0,0 H 20" style="stroke-width:20;stroke-linecap:round;stroke-linejoin:round;stroke-miterlimit:4;stroke-dasharray:none;stroke-opacity:1" id="path3393" fill="none" stroke="#000000" stroke-width="20" stroke-linecap="round" stroke-linejoin="round" stroke-miterlimit="4" stroke-dasharray="none" stroke-opacity="" data-original="#000000" class=""></path>
        </g>
        <g id="g3395" transform="translate(396,256)">
          <path d="M 0,0 H 20" style="stroke-width:20;stroke-linecap:round;stroke-linejoin:round;stroke-miterlimit:4;stroke-dasharray:none;stroke-opacity:1" id="path3397" fill="none" stroke="#000000" stroke-width="20" stroke-linecap="round" stroke-linejoin="round" stroke-miterlimit="4" stroke-dasharray="none" stroke-opacity="" data-original="#000000" class=""></path>
        </g>
        <g id="g3399" transform="translate(142.86,142.86)">
          <path d="M 0,0 14.15,14.15" style="stroke-width:20;stroke-linecap:round;stroke-linejoin:round;stroke-miterlimit:4;stroke-dasharray:none;stroke-opacity:1" id="path3401" fill="none" stroke="#000000" stroke-width="20" stroke-linecap="round" stroke-linejoin="round" stroke-miterlimit="4" stroke-dasharray="none" stroke-opacity="" data-original="#000000" class=""></path>
        </g>
        <g id="g3403" transform="translate(354.99,354.99)">
          <path d="M 0,0 14.15,14.15" style="stroke-width:20;stroke-linecap:round;stroke-linejoin:round;stroke-miterlimit:4;stroke-dasharray:none;stroke-opacity:1" id="path3405" fill="none" stroke="#000000" stroke-width="20" stroke-linecap="round" stroke-linejoin="round" stroke-miterlimit="4" stroke-dasharray="none" stroke-opacity="" data-original="#000000" class=""></path>
        </g>
        <g id="g3407" transform="translate(369.14,142.86)">
          <path d="M 0,0 -14.15,14.15" style="stroke-width:20;stroke-linecap:round;stroke-linejoin:round;stroke-miterlimit:4;stroke-dasharray:none;stroke-opacity:1" id="path3409" fill="none" stroke="#000000" stroke-width="20" stroke-linecap="round" stroke-linejoin="round" stroke-miterlimit="4" stroke-dasharray="none" stroke-opacity="" data-original="#000000" class=""></path>
        </g>
        <g id="g3411" transform="translate(157.01,354.99)">
          <path d="M 0,0 -14.15,14.15" style="stroke-width:20;stroke-linecap:round;stroke-linejoin:round;stroke-miterlimit:4;stroke-dasharray:none;stroke-opacity:1" id="path3413" fill="none" stroke="#000000" stroke-width="20" stroke-linecap="round" stroke-linejoin="round" stroke-miterlimit="4" stroke-dasharray="none" stroke-opacity="" data-original="#000000" class=""></path>
        </g>
      </g>
    </g>
  </g></g>
</g></svg>