<svg xmlns="http://www.w3.org/2000/svg" version="1.1" xmlns:xlink="http://www.w3.org/1999/xlink" xmlns:svgjs="http://svgjs.com/svgjs" width="512" height="512" x="0" y="0" viewBox="0 0 682.66669 682.66669" style="enable-background:new 0 0 512 512" xml:space="preserve" class=""><g><defs id="defs133"><clipPath clipPathUnits="userSpaceOnUse" id="clipPath143"><path d="M 0,512 H 512 V 0 H 0 Z" id="path141" fill="#000000" data-original="#000000"></path></clipPath></defs><g id="g135" transform="matrix(1.3333333,0,0,-1.3333333,0,682.66667)"><g id="g137"><g id="g139" clip-path="url(#clipPath143)"><g id="g145" transform="translate(294.8271,440.9531)"><path d="M 0,0 C 80.79,0 146.517,-65.563 146.517,-146.15" style="stroke-width:20;stroke-linecap:round;stroke-linejoin:round;stroke-miterlimit:10;stroke-dasharray:none;stroke-opacity:1" id="path147" fill="none" stroke="#000000" stroke-width="20" stroke-linecap="round" stroke-linejoin="round" stroke-miterlimit="10" stroke-dasharray="none" stroke-opacity="" data-original="#000000" class=""></path></g><g id="g149" transform="translate(294.8271,382.6675)"><path d="M 0,0 C 48.57,0 88.085,-39.416 88.085,-87.864" style="stroke-width:20;stroke-linecap:round;stroke-linejoin:round;stroke-miterlimit:10;stroke-dasharray:none;stroke-opacity:1" id="path151" fill="none" stroke="#000000" stroke-width="20" stroke-linecap="round" stroke-linejoin="round" stroke-miterlimit="10" stroke-dasharray="none" stroke-opacity="" data-original="#000000" class=""></path></g><g id="g153" transform="translate(294.8271,324.3813)"><path d="M 0,0 C 16.377,0 29.652,-13.243 29.652,-29.578" style="stroke-width:20;stroke-linecap:round;stroke-linejoin:round;stroke-miterlimit:10;stroke-dasharray:none;stroke-opacity:1" id="path155" fill="none" stroke="#000000" stroke-width="20" stroke-linecap="round" stroke-linejoin="round" stroke-miterlimit="10" stroke-dasharray="none" stroke-opacity="" data-original="#000000" class=""></path></g><g id="g157" transform="translate(206.5005,270.4819)"><path d="m 0,0 -46.057,46.057 43.695,43.83 c 14.905,14.952 14.905,39.105 0,54.057 l -74.166,74.398 c -17.513,17.568 -46.013,17.568 -63.526,0 L -164.31,194.01 c -26.914,-26.999 -44.752,-58.809 -18.778,-121.114 3.614,-8.67 12.253,-21.63 24.532,-37.494 l 27,-29.752 201.102,-201.733 29.661,-27.084 c 15.813,-12.319 28.733,-20.984 37.376,-24.61 62.11,-26.055 93.821,-8.161 120.736,18.838 l 24.255,24.331 c 17.571,17.627 17.571,46.099 0,63.726 l -73.861,74.091 c -15.024,15.072 -39.473,15.072 -54.498,0 l -43.144,-43.28 -46.14,46.139" style="stroke-width:20;stroke-linecap:round;stroke-linejoin:round;stroke-miterlimit:10;stroke-dasharray:none;stroke-opacity:1" id="path159" fill="none" stroke="#000000" stroke-width="20" stroke-linecap="round" stroke-linejoin="round" stroke-miterlimit="10" stroke-dasharray="none" stroke-opacity="" data-original="#000000" class=""></path></g><g id="g161" transform="translate(238.5957,238.3867)"><path d="M 0,0 V 0" style="stroke-width:20;stroke-linecap:round;stroke-linejoin:round;stroke-miterlimit:10;stroke-dasharray:none;stroke-opacity:1" id="path163" fill="none" stroke="#000000" stroke-width="20" stroke-linecap="round" stroke-linejoin="round" stroke-miterlimit="10" stroke-dasharray="none" stroke-opacity="" data-original="#000000" class=""></path></g></g></g></g></g></svg>