<svg xmlns="http://www.w3.org/2000/svg" version="1.1" xmlns:xlink="http://www.w3.org/1999/xlink" xmlns:svgjs="http://svgjs.com/svgjs" width="512" height="512" x="0" y="0" viewBox="0 0 512 512" style="enable-background:new 0 0 512 512" xml:space="preserve" class=""><g><g><g><path d="m437.02 74.981c-48.353-48.353-112.64-74.981-181.02-74.981-52.119 0-102.272 15.568-145.038 45.022-4.549 3.133-5.696 9.359-2.563 13.908 3.133 4.548 9.36 5.697 13.907 2.563 39.415-27.145 85.645-41.493 133.694-41.493 63.038 0 122.303 24.548 166.877 69.123 44.575 44.574 69.123 103.839 69.123 166.877s-24.548 122.303-69.123 166.877c-44.574 44.575-103.839 69.123-166.877 69.123s-122.303-24.548-166.877-69.123c-44.575-44.574-69.123-103.839-69.123-166.877 0-48.048 14.348-94.278 41.492-133.692 3.132-4.548 1.984-10.775-2.564-13.908-4.549-3.132-10.774-1.986-13.908 2.564-29.453 42.766-45.02 92.919-45.02 145.036 0 68.38 26.629 132.667 74.98 181.019 48.353 48.353 112.64 74.981 181.02 74.981s132.667-26.628 181.02-74.981c48.351-48.352 74.98-112.639 74.98-181.019s-26.629-132.667-74.98-181.019z" fill="#000000" data-original="#000000" class=""></path><path d="m256 462.574c113.905 0 206.574-92.669 206.574-206.574s-92.669-206.574-206.574-206.574-206.574 92.669-206.574 206.574 92.669 206.574 206.574 206.574zm-101.78-362.863 2.555 4.425c1.853 3.208 5.213 5.001 8.67 5.001 1.696 0 3.415-.432 4.99-1.341 4.783-2.761 6.422-8.877 3.66-13.66l-2.575-4.46c22.577-11.514 47.793-18.564 74.48-19.98v5.174c0 5.523 4.478 10 10 10s10-4.477 10-10v-5.174c26.687 1.417 51.903 8.466 74.48 19.98l-2.575 4.46c-2.762 4.783-1.123 10.899 3.66 13.66 1.575.91 3.294 1.341 4.99 1.341 3.456 0 6.818-1.793 8.67-5.001l2.555-4.425c21.721 14.194 40.315 32.787 54.509 54.509l-4.425 2.555c-4.783 2.762-6.422 8.877-3.66 13.66 1.853 3.208 5.213 5.001 8.67 5.001 1.696 0 3.416-.432 4.99-1.341l4.46-2.575c11.514 22.577 18.564 47.793 19.98 74.48h-5.174c-5.522 0-10 4.477-10 10s4.478 10 10 10h5.174c-1.417 26.687-8.466 51.903-19.98 74.48l-4.46-2.575c-4.784-2.762-10.898-1.123-13.66 3.66s-1.123 10.898 3.66 13.66l4.425 2.555c-14.194 21.722-32.787 40.315-54.509 54.509l-2.555-4.425c-2.761-4.781-8.874-6.421-13.66-3.66-4.783 2.761-6.422 8.877-3.66 13.66l2.575 4.46c-22.577 11.514-47.793 18.564-74.48 19.98v-5.174c0-5.523-4.478-10-10-10s-10 4.477-10 10v5.174c-26.687-1.417-51.903-8.466-74.48-19.98l2.575-4.46c2.762-4.783 1.123-10.899-3.66-13.66-4.784-2.764-10.899-1.123-13.66 3.66l-2.555 4.425c-21.721-14.194-40.315-32.787-54.509-54.509l4.425-2.555c4.783-2.762 6.422-8.877 3.66-13.66-2.761-4.783-8.877-6.421-13.66-3.66l-4.46 2.575c-11.514-22.577-18.564-47.793-19.98-74.48h5.174c5.522 0 10-4.477 10-10s-4.478-10-10-10h-5.174c1.417-26.687 8.466-51.903 19.98-74.48l4.46 2.575c1.575.909 3.294 1.341 4.99 1.341 3.456 0 6.817-1.793 8.67-5.001 2.762-4.783 1.123-10.898-3.66-13.66l-4.425-2.555c14.194-21.722 32.787-40.315 54.509-54.509z" fill="#000000" data-original="#000000" class=""></path><path d="m324.755 288.307c-1.823-2.447-4.729-4.039-8.015-4.039-5.522 0-10 4.477-10 10v63.032c0 5.523 4.478 10 10 10s10-4.477 10-10v-32.433c0-9.683 3.142-20.029 11.957-20.029 3.401 0 4.832 1.065 5.611 1.867 2.545 2.616 3.876 8.761 3.651 16.858-.003.092-.004 33.455-.004 33.455 0 5.523 4.478 10 10 10s10-4.477 10-10v-33.044c.364-13.986-2.769-24.488-9.311-31.214-5.042-5.183-11.939-7.922-19.948-7.922-5.013 0-9.736 1.203-13.941 3.469z" fill="#000000" data-original="#000000" class=""></path><path d="m154.015 367.16c5.522 0 10-4.477 10-10 0 0 .005-32.49.005-32.522 0-8.936 3.28-19.372 12.526-19.372 3.772 0 8.468 0 8.951 16.412.017.565.019 35.482.019 35.482 0 5.523 4.478 10 10 10s10-4.477 10-10l.017-36.76c.002-14.811 8.524-14.811 11.324-14.811 3.296 0 5.552.611 6.705 1.818 1.298 1.357 3.395 5.415 2.857 17.33-.007.15-.01 32.423-.01 32.423 0 5.523 4.478 10 10 10s10-4.477 10-10v-31.753c.646-15.043-2.022-25.158-8.391-31.82-5.073-5.307-12.193-7.998-21.162-7.998-8.302 0-15.321 2.603-20.598 7.291-5.65-5.897-13.041-7.614-19.712-7.614-5.224 0-10.014 1.213-14.225 3.436-1.795-2.673-4.845-4.433-8.307-4.433-5.522 0-10 4.477-10 10v62.891c.001 5.523 4.478 10 10.001 10z" fill="#000000" data-original="#000000" class=""></path><path d="m276.634 367.3c5.522 0 10-4.477 10-10v-61.711c0-5.523-4.478-10-10-10s-10 4.477-10 10v61.711c0 5.523 4.477 10 10 10z" fill="#000000" data-original="#000000" class=""></path><path d="m200.351 258.521c22.487 0 40.781-18.294 40.781-40.781s-18.294-40.781-40.781-40.781c-2.918 0-5.763.314-8.51.9 9.758-17.215 21.65-26.427 21.926-26.636 4.409-3.301 5.319-9.55 2.029-13.973-3.295-4.432-9.562-5.352-13.991-2.056-1.465 1.089-35.744 27.12-41.722 76.108-.334 2.098-.513 4.247-.513 6.438-.001 22.486 18.293 40.781 40.781 40.781zm20.781-40.782c0 11.459-9.322 20.781-20.781 20.781s-20.781-9.322-20.781-20.781 9.322-20.781 20.781-20.781 20.781 9.322 20.781 20.781z" fill="#000000" data-original="#000000" class=""></path><path d="m313.173 258.521c21.646 0 39.258-17.611 39.258-39.257v-46.789c0-21.646-17.611-39.257-39.258-39.257s-39.257 17.611-39.257 39.257v46.789c0 21.646 17.61 39.257 39.257 39.257zm-19.257-86.046c0-10.619 8.639-19.257 19.257-19.257 10.619 0 19.258 8.639 19.258 19.257v46.789c0 10.619-8.639 19.257-19.258 19.257-10.618 0-19.257-8.639-19.257-19.257z" fill="#000000" data-original="#000000" class=""></path><circle cx="82.069" cy="82.072" r="10" fill="#000000" data-original="#000000" class=""></circle></g></g></g></svg>